<svg viewBox="0 0 175 45" fill="none" xmlns="http://www.w3.org/2000/svg">
<g opacity="0.8">
<path d="M51.5771 13.3277C51.5771 12.3778 52.3826 11.5798 53.3857 11.5798C54.3052 11.5798 55.0803 12.3854 55.0803 13.3277V27.6979H62.8848C65.6965 27.6979 65.7497 31.452 62.8848 31.452H53.3933C52.3902 31.452 51.5847 30.7376 51.5847 29.7041V13.3277H51.5771Z" fill="#45B762"/>
<path d="M69.5873 13.3277C69.5873 10.9795 73.3718 10.8883 73.3718 13.3277V29.7041C73.3718 32.0827 69.5873 32.1435 69.5873 29.7041V13.3277Z" fill="#45B762"/>
<path d="M85.5306 30.1601L77.9618 14.3004C76.8447 12.0358 80.2263 10.174 81.4878 12.5525L84.0412 18.3204L87.3393 25.8893L90.5766 18.3204L93.1299 12.5525C94.2774 10.3715 97.6059 11.747 96.6256 14.1332L89.3151 30.1677C88.6539 31.9763 86.6173 32.4019 85.5306 30.1677V30.1601Z" fill="#45B762"/>
<path d="M102.682 31.452C101.679 31.452 100.904 30.6768 100.904 29.6737V13.3809C100.904 12.3474 101.679 11.6026 102.682 11.6026H112.979C115.616 11.6026 115.563 15.3339 112.979 15.3339H104.719V19.6351H111.946C114.499 19.6351 114.499 23.3891 111.946 23.3891H104.719V27.6903H113.466C116.072 27.6903 116.277 31.4444 113.466 31.4444H102.682V31.452Z" fill="#45B762"/>
<path d="M127.349 18.4876L132.342 12.2334C133.832 10.2804 136.727 12.7805 135.093 14.6423C133.376 16.679 131.567 18.8903 129.842 21.1549L135.693 28.4426C137.274 30.5932 134.113 32.6602 132.57 30.54L127.296 23.7691L122.106 30.6844C120.647 32.7818 117.402 30.4261 119.036 28.473L124.804 21.1625C122.995 18.8979 121.247 16.6866 119.499 14.6499C117.691 12.4993 121.05 10.288 122.364 12.3018L127.357 18.4952L127.349 18.4876Z" fill="#2BBAA3"/>
<path d="M139.136 28.9594C139.136 26.3756 143.293 26.3756 143.293 28.9594V29.5065C143.293 32.0599 139.136 32.2043 139.136 29.5065V28.9594Z" fill="#2BBAA3"/>
<path d="M147.624 31.452C146.705 30.9352 146.135 29.9017 146.705 28.701L154.935 12.6133C155.71 11.0935 157.777 11.0327 158.491 12.6133L166.577 28.701C167.755 30.9352 164.282 32.7134 163.248 30.4792L161.987 27.9563H151.401L150.17 30.4792C149.714 31.452 148.65 31.6571 147.617 31.452H147.624ZM159.958 24.1718L156.721 17.0893L153.195 24.1718H159.966H159.958Z" fill="#2BBAA3"/>
<path d="M170.825 13.3277C170.825 10.9795 174.609 10.8883 174.609 13.3277V29.7041C174.609 32.0827 170.825 32.1435 170.825 29.7041V13.3277Z" fill="#2BBAA3"/>
<path d="M51.5771 13.3277C51.5771 12.3778 52.3826 11.5798 53.3857 11.5798C54.3052 11.5798 55.0803 12.3854 55.0803 13.3277V27.6979H62.8848C65.6965 27.6979 65.7497 31.452 62.8848 31.452H53.3933C52.3902 31.452 51.5847 30.7376 51.5847 29.7041V13.3277H51.5771Z" fill="url(#paint0_linear_9942_243638)"/>
<path d="M69.5873 13.3277C69.5873 10.9795 73.3718 10.8883 73.3718 13.3277V29.7041C73.3718 32.0827 69.5873 32.1435 69.5873 29.7041V13.3277Z" fill="url(#paint1_linear_9942_243638)"/>
<path d="M85.5306 30.1601L77.9618 14.3004C76.8447 12.0358 80.2263 10.174 81.4878 12.5525L84.0412 18.3204L87.3393 25.8893L90.5766 18.3204L93.1299 12.5525C94.2774 10.3715 97.6059 11.747 96.6256 14.1332L89.3151 30.1677C88.6539 31.9763 86.6173 32.4019 85.5306 30.1677V30.1601Z" fill="url(#paint2_linear_9942_243638)"/>
<path d="M102.682 31.452C101.679 31.452 100.904 30.6768 100.904 29.6737V13.3809C100.904 12.3474 101.679 11.6026 102.682 11.6026H112.979C115.616 11.6026 115.563 15.3339 112.979 15.3339H104.719V19.6351H111.946C114.499 19.6351 114.499 23.3891 111.946 23.3891H104.719V27.6903H113.466C116.072 27.6903 116.277 31.4444 113.466 31.4444H102.682V31.452Z" fill="url(#paint3_linear_9942_243638)"/>
<path d="M127.349 18.4876L132.342 12.2334C133.832 10.2804 136.727 12.7805 135.093 14.6423C133.376 16.679 131.567 18.8903 129.842 21.1549L135.693 28.4426C137.274 30.5932 134.113 32.6602 132.57 30.54L127.296 23.7691L122.106 30.6844C120.647 32.7818 117.402 30.4261 119.036 28.473L124.804 21.1625C122.995 18.8979 121.247 16.6866 119.499 14.6499C117.691 12.4993 121.05 10.288 122.364 12.3018L127.357 18.4952L127.349 18.4876Z" fill="url(#paint4_linear_9942_243638)"/>
<path d="M139.136 28.9594C139.136 26.3756 143.293 26.3756 143.293 28.9594V29.5065C143.293 32.0599 139.136 32.2043 139.136 29.5065V28.9594Z" fill="url(#paint5_linear_9942_243638)"/>
<path d="M147.624 31.452C146.705 30.9352 146.135 29.9017 146.705 28.701L154.935 12.6133C155.71 11.0935 157.777 11.0327 158.491 12.6133L166.577 28.701C167.755 30.9352 164.282 32.7134 163.248 30.4792L161.987 27.9563H151.401L150.17 30.4792C149.714 31.452 148.65 31.6571 147.617 31.452H147.624ZM159.958 24.1718L156.721 17.0893L153.195 24.1718H159.966H159.958Z" fill="url(#paint6_linear_9942_243638)"/>
<path d="M170.825 13.3277C170.825 10.9795 174.609 10.8883 174.609 13.3277V29.7041C174.609 32.0827 170.825 32.1435 170.825 29.7041V13.3277Z" fill="url(#paint7_linear_9942_243638)"/>
<path d="M25.8307 15.1135V30.6084C25.8307 31.8395 26.4842 32.721 28.0421 33.5949C30.1015 34.7424 37.6932 37.1514 40.4289 38.0253C42.04 38.5345 43.2786 37.0678 41.4016 34.9248C39.8362 33.1466 32.9436 25.5397 29.4175 21.7629C27.6545 19.8782 25.8307 18.328 25.8307 15.1135Z" fill="url(#paint8_linear_9942_243638)"/>
<path d="M25.8307 21.9681V30.6084C25.8307 31.8395 26.4842 32.721 28.0421 33.5949C30.1015 34.7424 37.6932 37.1514 40.4289 38.0253C41.4852 38.3597 42.3819 37.843 42.3439 36.8474C42.1311 38.3141 40.3377 37.3262 38.9394 36.2851C36.7129 34.6209 33.4148 31.8623 29.4099 28.625C27.4037 27.0064 25.8231 25.1901 25.8231 21.9756L25.8307 21.9681Z" fill="url(#paint9_linear_9942_243638)"/>
<path d="M25.8307 30.6084V15.1135C25.8307 13.4873 26.7198 11.5342 29.296 10.0904C32.9512 8.03857 41.4244 3.14463 46.2196 0.758456C49.6164 -0.936184 50.8779 0.279701 47.8534 3.69938C45.6724 6.16154 35.0258 18.0392 30.2839 23.4879C28.46 25.5853 26.1955 27.6675 25.8307 30.616V30.6084Z" fill="url(#paint10_linear_9942_243638)"/>
<path d="M23.5357 29.8865V14.3916C23.5357 13.1605 22.8822 12.279 21.3243 11.405C19.2649 10.2576 11.6732 7.84858 8.93749 6.97467C7.32644 6.46552 6.08775 7.93218 7.96478 10.0752C9.53023 11.8534 16.4228 19.4603 19.9488 23.2371C21.7119 25.1217 23.5357 26.672 23.5357 29.8865Z" fill="url(#paint11_linear_9942_243638)"/>
<path d="M23.7333 23.0319V14.3916C23.7333 13.1605 23.0797 12.279 21.5219 11.405C19.4625 10.2576 11.8708 7.84858 9.13507 6.97467C8.07877 6.6403 7.18205 7.15705 7.22005 8.15256C7.43283 6.68589 9.22626 7.6738 10.6245 8.7149C12.8511 10.3791 16.1492 13.1377 20.154 16.375C22.1602 17.9936 23.7409 19.8099 23.7409 23.0243L23.7333 23.0319Z" fill="url(#paint12_linear_9942_243638)"/>
<path d="M25.8307 23.4575V15.1211C25.8307 13.4949 26.7198 11.5418 29.296 10.098C32.9512 8.04617 41.4244 3.15223 46.2196 0.766055C48.5753 -0.404235 49.8976 -0.183855 49.4872 1.19921C49.6012 0.142914 48.5753 0.363293 47.6406 1.10042C44.9885 3.18263 35.1246 10.7135 29.8963 15.3187C26.6818 18.1532 26.1955 20.5166 25.8231 23.4651L25.8307 23.4575Z" fill="url(#paint13_linear_9942_243638)"/>
<path d="M23.7333 14.3916V29.8865C23.7333 31.5128 22.8442 33.4658 20.268 34.9096C16.6128 36.9614 8.13956 41.8554 3.34441 44.2415C-0.0524642 45.9362 -1.31394 44.7203 1.71057 41.3006C3.89156 38.8385 14.5382 26.9608 19.2801 21.5121C21.1039 19.4147 23.3685 17.3325 23.7333 14.384V14.3916Z" fill="url(#paint14_linear_9942_243638)"/>
<path d="M23.7333 20.2354L23.7333 29.8865C23.7333 31.5128 22.8442 33.4658 20.268 34.9096C16.6128 36.9614 8.13956 41.8554 3.34441 44.2415C0.988637 45.4118 -0.333638 45.1915 0.0767236 43.8084C-0.0372656 44.8647 0.988637 44.6443 1.92335 43.9072C4.5755 41.825 15.5793 33.1542 20.7696 28.5034C22.8442 26.6492 23.7409 23.9059 23.7409 20.2278L23.7333 20.2354Z" fill="url(#paint15_linear_9942_243638)"/>
</g>
<defs>
<linearGradient id="paint0_linear_9942_243638" x1="0" y1="22.6119" x2="1598.82" y2="22.6119" gradientUnits="userSpaceOnUse">
<stop stop-color="#448AFF"/>
<stop offset="0.5" stop-color="#00B0FF"/>
<stop offset="1" stop-color="#304FFE"/>
</linearGradient>
<linearGradient id="paint1_linear_9942_243638" x1="-830.972" y1="22.5985" x2="4845.59" y2="22.5985" gradientUnits="userSpaceOnUse">
<stop stop-color="#448AFF"/>
<stop offset="0.5" stop-color="#00B0FF"/>
<stop offset="1" stop-color="#304FFE"/>
</linearGradient>
<linearGradient id="paint2_linear_9942_243638" x1="-239.607" y1="22.4972" x2="887.202" y2="22.4972" gradientUnits="userSpaceOnUse">
<stop stop-color="#448AFF"/>
<stop offset="0.5" stop-color="#00B0FF"/>
<stop offset="1" stop-color="#304FFE"/>
</linearGradient>
<linearGradient id="paint3_linear_9942_243638" x1="-590.162" y1="22.5861" x2="881.834" y2="22.5861" gradientUnits="userSpaceOnUse">
<stop stop-color="#448AFF"/>
<stop offset="0.5" stop-color="#00B0FF"/>
<stop offset="1" stop-color="#304FFE"/>
</linearGradient>
<linearGradient id="paint4_linear_9942_243638" x1="-667.179" y1="22.6297" x2="557.78" y2="22.6297" gradientUnits="userSpaceOnUse">
<stop stop-color="#448AFF"/>
<stop offset="0.5" stop-color="#00B0FF"/>
<stop offset="1" stop-color="#304FFE"/>
</linearGradient>
<linearGradient id="paint5_linear_9942_243638" x1="-3677.97" y1="-55.1201" x2="1490.09" y2="-55.1201" gradientUnits="userSpaceOnUse">
<stop stop-color="#448AFF"/>
<stop offset="0.5" stop-color="#00B0FF"/>
<stop offset="1" stop-color="#304FFE"/>
</linearGradient>
<linearGradient id="paint6_linear_9942_243638" x1="-814.634" y1="22.6748" x2="241.494" y2="22.6748" gradientUnits="userSpaceOnUse">
<stop stop-color="#448AFF"/>
<stop offset="0.5" stop-color="#00B0FF"/>
<stop offset="1" stop-color="#304FFE"/>
</linearGradient>
<linearGradient id="paint7_linear_9942_243638" x1="-5501.95" y1="22.5985" x2="174.61" y2="22.5985" gradientUnits="userSpaceOnUse">
<stop stop-color="#448AFF"/>
<stop offset="0.5" stop-color="#00B0FF"/>
<stop offset="1" stop-color="#304FFE"/>
</linearGradient>
<linearGradient id="paint8_linear_9942_243638" x1="-424.127" y1="71.1791" x2="-704.255" y2="-3.39175" gradientUnits="userSpaceOnUse">
<stop stop-color="#64FFDA"/>
<stop offset="1" stop-color="#00B7D3"/>
</linearGradient>
<linearGradient id="paint9_linear_9942_243638" x1="-24802.7" y1="2627.88" x2="-24801.4" y2="2603.4" gradientUnits="userSpaceOnUse">
<stop stop-color="#64FFDA"/>
<stop offset="1" stop-color="#00B7D3"/>
</linearGradient>
<linearGradient id="paint10_linear_9942_243638" x1="-1222.67" y1="180.776" x2="-1222.08" y2="134.065" gradientUnits="userSpaceOnUse">
<stop stop-color="#64FFDA"/>
<stop offset="1" stop-color="#00B7D3"/>
</linearGradient>
<linearGradient id="paint11_linear_9942_243638" x1="6219.86" y1="-435.945" x2="6454.84" y2="-373.358" gradientUnits="userSpaceOnUse">
<stop stop-color="#00B0FF"/>
<stop offset="1" stop-color="#304FFE"/>
</linearGradient>
<linearGradient id="paint12_linear_9942_243638" x1="6373.64" y1="-643.681" x2="6372.2" y2="-617.469" gradientUnits="userSpaceOnUse">
<stop stop-color="#00B0FF"/>
<stop offset="1" stop-color="#304FFE"/>
</linearGradient>
<linearGradient id="paint13_linear_9942_243638" x1="16.2661" y1="46.3996" x2="28.7817" y2="-36.6805" gradientUnits="userSpaceOnUse">
<stop stop-color="#64FFDA"/>
<stop offset="1" stop-color="#00B7D3"/>
</linearGradient>
<linearGradient id="paint14_linear_9942_243638" x1="184.058" y1="0.424442" x2="174.873" y2="80.0452" gradientUnits="userSpaceOnUse">
<stop stop-color="#00B0FF"/>
<stop offset="1" stop-color="#304FFE"/>
</linearGradient>
<linearGradient id="paint15_linear_9942_243638" x1="22.0842" y1="19.8403" x2="4.03593" y2="51.0885" gradientUnits="userSpaceOnUse">
<stop stop-color="#00B0FF"/>
<stop offset="1" stop-color="#304FFE"/>
</linearGradient>
</defs>
</svg>
